<svg width="14" height="12" viewBox="0 0 20 18" fill="none" xmlns="http://www.w3.org/2000/svg">
    <path d="M9.59981 11.078C11.9898 11.078 13.9918 10.266 14.1128 9.205L12.9878 6.053C12.7238 6.814 11.2628 7.354 9.59981 7.354C7.93681 7.354 6.47581 6.814 6.21181 6.053L5.08781 9.205C5.20881 10.266 7.20981 11.078 9.59981 11.078ZM9.59981 4.373C10.7238 4.373 11.7668 4.025 12.0728 3.484C11.6518 2.302 11.2908 1.287 11.0618 0.648C10.9098 0.221 10.2208 0 9.59981 0C8.97881 0 8.28981 0.221 8.13781 0.648L7.12681 3.484C7.43281 4.025 8.47681 4.373 9.59981 4.373ZM18.3798 12.066L14.6248 10.552L15.0578 11.759C15.0358 13.038 12.5538 14.058 9.59981 14.058C6.64681 14.058 4.16281 13.039 4.14181 11.759L4.57481 10.552L0.819809 12.066C-0.233191 12.49 -0.278191 13.275 0.721809 13.81L7.78381 17.597C8.78181 18.132 10.4168 18.132 11.4158 17.597L18.4788 13.81C19.4778 13.275 19.4328 12.49 18.3798 12.066Z" fill="white" />
</svg>