<svg width="40" height="40" viewBox="0 0 60 60" fill="none" xmlns="http://www.w3.org/2000/svg">
    <path d="M16.7751 22.7249C16.5433 22.9562 16.3594 23.231 16.234 23.5334C16.1085 23.8358 16.0439 24.16 16.0439 24.4874C16.0439 24.8149 16.1085 25.1391 16.234 25.4415C16.3594 25.7439 16.5433 26.0187 16.7751 26.2499L28.2501 37.7249C28.4813 37.9567 28.7561 38.1406 29.0585 38.266C29.3609 38.3915 29.6851 38.4561 30.0126 38.4561C30.34 38.4561 30.6642 38.3915 30.9666 38.266C31.2691 38.1406 31.5438 37.9567 31.7751 37.7249L43.2501 26.2499C43.4815 26.0185 43.6651 25.7437 43.7904 25.4413C43.9156 25.1389 43.9801 24.8148 43.9801 24.4874C43.9801 24.1601 43.9156 23.836 43.7904 23.5336C43.6651 23.2312 43.4815 22.9564 43.2501 22.7249C43.0186 22.4935 42.7438 22.3099 42.4414 22.1846C42.139 22.0594 41.8149 21.9949 41.4876 21.9949C41.1602 21.9949 40.8361 22.0594 40.5337 22.1846C40.2313 22.3099 39.9565 22.4935 39.7251 22.7249L30.0001 32.4249L20.3001 22.7249C19.3251 21.7749 17.7251 21.7749 16.7751 22.7249Z" fill="#818181" />
</svg>