<svg width="14" height="12" viewBox="0 0 20 18" fill="none" xmlns="http://www.w3.org/2000/svg">
    <path d="M10 5.53846C10.7578 5.53846 11.4845 5.2467 12.0203 4.72737C12.5561 4.20804 12.8571 3.50368 12.8571 2.76923C12.8571 2.03479 12.5561 1.33042 12.0203 0.811089C11.4845 0.291757 10.7578 0 10 0C9.24224 0 8.51551 0.291757 7.97969 0.811089C7.44388 1.33042 7.14286 2.03479 7.14286 2.76923C7.14286 3.50368 7.44388 4.20804 7.97969 4.72737C8.51551 5.2467 9.24224 5.53846 10 5.53846ZM5.71429 3.11538C5.71429 3.43359 5.64962 3.74867 5.52398 4.04266C5.39835 4.33664 5.2142 4.60375 4.98205 4.82876C4.74991 5.05376 4.47431 5.23224 4.17099 5.35402C3.86768 5.47579 3.54259 5.53846 3.21429 5.53846C2.88598 5.53846 2.56089 5.47579 2.25758 5.35402C1.95426 5.23224 1.67867 5.05376 1.44652 4.82876C1.21437 4.60375 1.03022 4.33664 0.904587 4.04266C0.77895 3.74867 0.714286 3.43359 0.714286 3.11538C0.714286 2.47274 0.977678 1.85643 1.44652 1.40201C1.91536 0.947596 2.55124 0.692308 3.21429 0.692308C3.87733 0.692308 4.51321 0.947596 4.98205 1.40201C5.45089 1.85643 5.71429 2.47274 5.71429 3.11538ZM19.2857 3.11538C19.2857 3.43359 19.2211 3.74867 19.0954 4.04266C18.9698 4.33664 18.7856 4.60375 18.5535 4.82876C18.3213 5.05376 18.0457 5.23224 17.7424 5.35402C17.4391 5.47579 17.114 5.53846 16.7857 5.53846C16.4574 5.53846 16.1323 5.47579 15.829 5.35402C15.5257 5.23224 15.2501 5.05376 15.0179 4.82876C14.7858 4.60375 14.6017 4.33664 14.476 4.04266C14.3504 3.74867 14.2857 3.43359 14.2857 3.11538C14.2857 2.47274 14.5491 1.85643 15.0179 1.40201C15.4868 0.947596 16.1227 0.692308 16.7857 0.692308C17.4488 0.692308 18.0846 0.947596 18.5535 1.40201C19.0223 1.85643 19.2857 2.47274 19.2857 3.11538ZM5.26929 6.92308C4.86283 7.41382 4.64178 8.02454 4.64286 8.65385V13.8462C4.64286 14.7012 4.85571 15.5077 5.23357 16.2187C4.68919 16.4961 4.08012 16.6326 3.46534 16.6149C2.85056 16.5972 2.25092 16.4259 1.7245 16.1176C1.19808 15.8093 0.762725 15.3745 0.460598 14.8553C0.158471 14.336 -0.00018408 13.75 1.60281e-07 13.1538V8.65385C1.60281e-07 8.19482 0.188137 7.75459 0.523024 7.43001C0.85791 7.10543 1.31211 6.92308 1.78571 6.92308H5.26929ZM14.7664 16.2187C15.1559 15.4849 15.3584 14.6714 15.3571 13.8462V8.65385C15.3571 7.99892 15.1229 7.39731 14.7307 6.92308H18.2143C18.6879 6.92308 19.1421 7.10543 19.477 7.43001C19.8119 7.75459 20 8.19482 20 8.65385V13.1538C20.0002 13.75 19.8415 14.336 19.5394 14.8553C19.2373 15.3745 18.8019 15.8093 18.2755 16.1176C17.7491 16.4259 17.1494 16.5972 16.5347 16.6149C15.9199 16.6326 15.3108 16.4961 14.7664 16.2187ZM7.5 6.92308C7.0264 6.92308 6.5722 7.10543 6.23731 7.43001C5.90242 7.75459 5.71429 8.19482 5.71429 8.65385V13.8462C5.71429 14.9478 6.16582 16.0044 6.96954 16.7834C7.77327 17.5624 8.86336 18 10 18C11.1366 18 12.2267 17.5624 13.0305 16.7834C13.8342 16.0044 14.2857 14.9478 14.2857 13.8462V8.65385C14.2857 8.19482 14.0976 7.75459 13.7627 7.43001C13.4278 7.10543 12.9736 6.92308 12.5 6.92308H7.5Z" fill="white" />
</svg>