<svg width="14" height="12" viewBox="0 0 14 14" fill="none" xmlns="http://www.w3.org/2000/svg">
    <path d="M12.0909 0C12.5972 0 13.0828 0.221249 13.4408 0.615076C13.7989 1.0089 14 1.54305 14 2.1V3.5H12.7273V11.9C12.7273 12.457 12.5261 12.9911 12.1681 13.3849C11.8101 13.7788 11.3245 14 10.8182 14H1.90909C1.40277 14 0.917184 13.7788 0.55916 13.3849C0.201136 12.9911 0 12.457 0 11.9V10.5H10.1818V11.9C10.1818 12.0715 10.2391 12.2369 10.3426 12.3651C10.4462 12.4932 10.5889 12.575 10.7437 12.5951L10.8182 12.6C10.974 12.6 11.1245 12.537 11.241 12.4231C11.3574 12.3092 11.4319 12.1522 11.4501 11.9819L11.4545 11.9V9.1H1.27273V2.1C1.27273 1.54305 1.47386 1.0089 1.83189 0.615076C2.18991 0.221249 2.6755 0 3.18182 0H12.0909Z" fill="white" />
</svg>