<svg width="20" height="20" viewBox="0 0 20 20" fill="none" xmlns="http://www.w3.org/2000/svg">
<path fill-rule="evenodd" clip-rule="evenodd" d="M13.0547 17.5254C13.0547 17.9232 13.2127 18.3047 13.494 18.5861C13.7753 18.8674 14.1569 19.0254 14.5547 19.0254C14.9525 19.0254 15.334 18.8674 15.6153 18.5861C15.8967 18.3047 16.0547 17.9232 16.0547 17.5254V16.0254H17.5547C17.9525 16.0254 18.334 15.8674 18.6153 15.5861C18.8967 15.3047 19.0547 14.9232 19.0547 14.5254C19.0547 14.1276 18.8967 13.746 18.6153 13.4647C18.334 13.1834 17.9525 13.0254 17.5547 13.0254H16.0547V6.02539H17.5547C17.9525 6.02539 18.334 5.86736 18.6153 5.58605C18.8967 5.30475 19.0547 4.92322 19.0547 4.52539C19.0547 4.12757 18.8967 3.74603 18.6153 3.46473C18.334 3.18343 17.9525 3.02539 17.5547 3.02539H16.0547V1.52539C16.0547 1.12757 15.8967 0.746035 15.6153 0.464731C15.334 0.183426 14.9525 0.0253906 14.5547 0.0253906C14.1569 0.0253906 13.7753 0.183426 13.494 0.464731C13.2127 0.746035 13.0547 1.12757 13.0547 1.52539V3.02539H6.05469V1.52539C6.05469 1.32841 6.01589 1.13335 5.94051 0.951365C5.86512 0.769377 5.75464 0.604018 5.61535 0.464731C5.47606 0.325443 5.3107 0.214953 5.12871 0.139571C4.94672 0.0641891 4.75167 0.0253906 4.55469 0.0253906C4.3577 0.0253906 4.16265 0.0641891 3.98066 0.139571C3.79867 0.214953 3.63332 0.325443 3.49403 0.464731C3.35474 0.604018 3.24425 0.769377 3.16887 0.951365C3.09349 1.13335 3.05469 1.32841 3.05469 1.52539V3.02539H1.55469C1.3577 3.02539 1.16265 3.06419 0.980662 3.13957C0.798674 3.21495 0.633315 3.32544 0.494027 3.46473C0.354739 3.60402 0.24425 3.76938 0.168868 3.95137C0.093486 4.13335 0.0546875 4.32841 0.0546875 4.52539C0.0546875 4.72237 0.093486 4.91743 0.168868 5.09942C0.24425 5.2814 0.354739 5.44676 0.494027 5.58605C0.633315 5.72534 0.798674 5.83583 0.980662 5.91121C1.16265 5.98659 1.3577 6.02539 1.55469 6.02539H3.05469V13.0254H1.55469C1.15686 13.0254 0.775332 13.1834 0.494027 13.4647C0.212723 13.746 0.0546875 14.1276 0.0546875 14.5254C0.0546875 14.9232 0.212723 15.3047 0.494027 15.5861C0.775332 15.8674 1.15686 16.0254 1.55469 16.0254H3.05469V17.5254C3.05469 17.9232 3.21272 18.3047 3.49403 18.5861C3.77533 18.8674 4.15686 19.0254 4.55469 19.0254C4.95251 19.0254 5.33404 18.8674 5.61535 18.5861C5.89665 18.3047 6.05469 17.9232 6.05469 17.5254V16.0254H13.0547V17.5254ZM6.05469 13.0254H13.0547V6.02539H6.05469V13.0254Z" fill="white"/>
</svg>
