<svg width="45" height="50" viewBox="0 0 64 62" fill="none" xmlns="http://www.w3.org/2000/svg">
    <path d="M32 0C14 0 0 14 0 32C0 53 19 62 22 62C24 62 24 61 24 60V55C17 57 14 53 13 50C13 50 13 49 11 47C10 46 6 44 10 44C13 44 15 48 15 48C18 52 22 51 24 50C24 48 26 46 26 46C18 45 12 42 12 31C12 27 13 24 15 22C15 22 13 18 15 13C15 13 20 13 24 17C27 15 37 15 40 17C44 13 49 13 49 13C51 20 49 22 49 22C51 24 52 27 52 31C52 42 45 45 38 46C39 47 40 49 40 52V60C40 61 40 62 42 62C45 62 64 53 64 32C64 14 50 0 32 0Z" fill="black" />
</svg>