<svg width="11" height="20" viewBox="0 0 11 20" fill="none" xmlns="http://www.w3.org/2000/svg">
<path
d="M2.22233 1.17949L10.6479 9.57893C10.7479 9.67892 10.8186 9.78725 10.8599 9.90391C10.9019 10.0206 10.9229 10.1456 10.9229 10.2789C10.923 10.4122 10.902 10.5372 10.86 10.6539C10.8186 10.7706 10.748 10.8789 10.648 10.9789L2.22356 19.4045C1.99024 19.6378 1.69858 19.7545 1.34858 19.7546C0.998584 19.7546 0.698576 19.6296 0.448559 19.3796C0.198542 19.1296 0.0735227 18.838 0.0735002 18.5046C0.0734777 18.1713 0.198458 17.8796 0.448441 17.6296L7.79794 10.2791L0.447449 2.92961C0.2141 2.69629 0.0974137 2.40897 0.0973907 2.06764C0.0973676 1.72564 0.222348 1.42963 0.472331 1.17961C0.722314 0.929594 1.01397 0.804574 1.34731 0.804552C1.68064 0.804529 1.97231 0.929509 2.22233 1.17949Z"
fill="#274168"
/>
</svg>