<svg width="26" height="25" viewBox="0 0 26 25" fill="none" xmlns="http://www.w3.org/2000/svg">
<path d="M18.2671 1.27971C18.6301 0.905157 19.0639 0.606554 19.5434 0.401291C20.0229 0.196029 20.5384 0.0882074 21.0599 0.084106C21.5815 0.0800045 22.0986 0.179705 22.5813 0.377402C23.0639 0.575098 23.5024 0.866841 23.8712 1.23564C24.24 1.60444 24.5317 2.04293 24.7294 2.52557C24.9271 3.00821 25.0268 3.52536 25.0227 4.0469C25.0186 4.56845 24.9108 5.08397 24.7055 5.56344C24.5003 6.04291 24.2017 6.47676 23.8271 6.83971L22.2871 8.37971C22.8759 8.99314 23.2008 9.81287 23.1922 10.6631C23.1836 11.5133 22.8422 12.3263 22.2411 12.9277L20.2581 14.9097C20.1895 14.9834 20.1067 15.0425 20.0147 15.0835C19.9227 15.1245 19.8233 15.1465 19.7226 15.1483C19.6219 15.1501 19.5219 15.1316 19.4285 15.0938C19.3351 15.0561 19.2503 15 19.1791 14.9287C19.1079 14.8575 19.0517 14.7727 19.014 14.6793C18.9763 14.5859 18.9578 14.4859 18.9595 14.3852C18.9613 14.2845 18.9833 14.1852 19.0243 14.0932C19.0653 14.0012 19.1244 13.9184 19.1981 13.8497L21.1801 11.8667C21.5 11.5468 21.6836 11.1155 21.6923 10.6632C21.7011 10.2109 21.5344 9.77275 21.2271 9.44071L9.04112 21.6267C8.60112 22.0667 8.05412 22.3867 7.45412 22.5547L1.93012 24.1017C1.80204 24.1375 1.66677 24.1385 1.53815 24.1048C1.40954 24.071 1.29221 24.0037 1.19819 23.9096C1.10416 23.8156 1.03683 23.6983 1.00308 23.5697C0.969326 23.4411 0.970377 23.3058 1.00612 23.1777L2.55312 17.6527C2.72112 17.0527 3.04012 16.5067 3.48112 16.0667L18.2671 1.27971Z" fill="white"/>
</svg>
