<svg width="22" height="21" viewBox="0 0 22 21" fill="none" xmlns="http://www.w3.org/2000/svg">
<path d="M19.4395 12.6328C19.4395 12.4339 19.3604 12.2431 19.2198 12.1025C19.0791 11.9618 18.8884 11.8828 18.6895 11.8828H15.6895C15.4905 11.8828 15.2998 11.9618 15.1591 12.1025C15.0185 12.2431 14.9395 12.4339 14.9395 12.6328V19.3828H13.4395V3.13281C13.4395 2.40481 13.4375 1.93281 13.3915 1.58681C13.3475 1.26181 13.2765 1.15981 13.2195 1.10281C13.1625 1.04581 13.0605 0.974813 12.7355 0.930813C12.3885 0.884813 11.9175 0.882812 11.1895 0.882812C10.4615 0.882812 9.98945 0.884813 9.64345 0.930813C9.31845 0.974813 9.21645 1.04581 9.15945 1.10281C9.10245 1.15981 9.03145 1.26181 8.98745 1.58681C8.94145 1.93381 8.93945 2.40481 8.93945 3.13281V19.3828H7.43945V7.63281C7.43945 7.4339 7.36044 7.24314 7.21978 7.10248C7.07913 6.96183 6.88837 6.88281 6.68945 6.88281H3.68945C3.49054 6.88281 3.29978 6.96183 3.15912 7.10248C3.01847 7.24314 2.93945 7.4339 2.93945 7.63281V19.3828H1.18945C0.990541 19.3828 0.799775 19.4618 0.659123 19.6025C0.518471 19.7431 0.439453 19.9339 0.439453 20.1328C0.439453 20.3317 0.518471 20.5225 0.659123 20.6631C0.799775 20.8038 0.990541 20.8828 1.18945 20.8828H21.1895C21.3884 20.8828 21.5791 20.8038 21.7198 20.6631C21.8604 20.5225 21.9395 20.3317 21.9395 20.1328C21.9395 19.9339 21.8604 19.7431 21.7198 19.6025C21.5791 19.4618 21.3884 19.3828 21.1895 19.3828H19.4395V12.6328Z" fill="white"/>
</svg>
