<svg width="11" height="11" viewBox="0 0 11 20" fill="none" xmlns="http://www.w3.org/2000/svg">
<path
d="M8.773 19.3793L0.347998 10.9793C0.247998 10.8793 0.177331 10.771 0.135998 10.6543C0.093998 10.5377 0.072998 10.4127 0.072998 10.2793C0.072998 10.146 0.093998 10.021 0.135998 9.90432C0.177331 9.78766 0.247998 9.67932 0.347998 9.57932L8.773 1.15432C9.00633 0.920988 9.298 0.804321 9.648 0.804321C9.998 0.804321 10.298 0.929321 10.548 1.17932C10.798 1.42932 10.923 1.72099 10.923 2.05432C10.923 2.38765 10.798 2.67932 10.548 2.92932L3.198 10.2793L10.548 17.6293C10.7813 17.8627 10.898 18.15 10.898 18.4913C10.898 18.8333 10.773 19.1293 10.523 19.3793C10.273 19.6293 9.98133 19.7543 9.648 19.7543C9.31466 19.7543 9.023 19.6293 8.773 19.3793Z"
fill="#274168"
/>
</svg>