<svg width="25" height="11" viewBox="0 0 28 18" fill="none" xmlns="http://www.w3.org/2000/svg">
    <path d="M0.775056 1.72494C0.543297 1.95623 0.359428 2.23095 0.233974 2.53338C0.108521 2.83582 0.0439453 3.16002 0.0439453 3.48744C0.0439453 3.81486 0.108521 4.13907 0.233974 4.4415C0.359428 4.74394 0.543297 5.01866 0.775056 5.24994L12.2501 16.7249C12.4813 16.9567 12.7561 17.1406 13.0585 17.266C13.3609 17.3915 13.6851 17.4561 14.0126 17.4561C14.34 17.4561 14.6642 17.3915 14.9666 17.266C15.2691 17.1406 15.5438 16.9567 15.7751 16.7249L27.2501 5.24994C27.4815 5.01849 27.6651 4.74371 27.7904 4.4413C27.9156 4.13889 27.9801 3.81477 27.9801 3.48744C27.9801 3.16012 27.9156 2.836 27.7904 2.53359C27.6651 2.23118 27.4815 1.9564 27.2501 1.72494C27.0186 1.49349 26.7438 1.30989 26.4414 1.18463C26.139 1.05936 25.8149 0.994892 25.4876 0.994892C25.1602 0.994892 24.8361 1.05936 24.5337 1.18463C24.2313 1.30989 23.9565 1.49349 23.7251 1.72494L14.0001 11.4249L4.30006 1.72494C3.32506 0.774944 1.72506 0.774944 0.775056 1.72494V1.72494Z" fill="#fff" />
</svg>