 <svg width="14" height="12" viewBox="0 0 20 18" fill="none" xmlns="http://www.w3.org/2000/svg">
    <path d="M7 8C7.79113 8 8.56448 7.76541 9.22228 7.32588C9.88008 6.88635 10.3928 6.26164 10.6955 5.53074C10.9983 4.79983 11.0775 3.99556 10.9231 3.21964C10.7688 2.44372 10.3878 1.73098 9.82843 1.17157C9.26902 0.612164 8.55628 0.231202 7.78036 0.0768607C7.00444 -0.0774802 6.20017 0.00173312 5.46927 0.304484C4.73836 0.607234 4.11365 1.11992 3.67412 1.77772C3.2346 2.43552 3 3.20888 3 4C3 5.06087 3.42143 6.07828 4.17157 6.82843C4.92172 7.57857 5.93913 8 7 8ZM15 10C15.5933 10 16.1734 9.82405 16.6667 9.49441C17.1601 9.16477 17.5446 8.69623 17.7716 8.14805C17.9987 7.59987 18.0581 6.99667 17.9424 6.41473C17.8266 5.83279 17.5409 5.29824 17.1213 4.87868C16.7018 4.45912 16.1672 4.1734 15.5853 4.05765C15.0033 3.94189 14.4001 4.0013 13.8519 4.22836C13.3038 4.45543 12.8352 4.83994 12.5056 5.33329C12.1759 5.82664 12 6.40666 12 7C12 7.79565 12.3161 8.55871 12.8787 9.12132C13.4413 9.68393 14.2044 10 15 10ZM19 17C19.2652 17 19.5196 16.8946 19.7071 16.7071C19.8946 16.5196 20 16.2652 20 16C19.9992 15.0654 19.7365 14.1497 19.2416 13.3569C18.7468 12.564 18.0396 11.9258 17.2003 11.5145C16.3611 11.1032 15.4234 10.9353 14.4936 11.03C13.5638 11.1247 12.6791 11.478 11.94 12.05C10.9605 11.0744 9.71406 10.4106 8.35782 10.1424C7.00159 9.87426 5.59632 10.0137 4.31923 10.5431C3.04213 11.0726 1.95041 11.9683 1.18174 13.1174C0.413069 14.2665 0.00187019 15.6175 0 17C0 17.2652 0.105357 17.5196 0.292893 17.7071C0.48043 17.8946 0.734784 18 1 18H13C13.2652 18 13.5196 17.8946 13.7071 17.7071C13.8946 17.5196 14 17.2652 14 17" fill="white" />
</svg>