<svg width="14" height="12" viewBox="0 0 20 18" fill="none" xmlns="http://www.w3.org/2000/svg">
    <path d="M6.50003 12.375C6.42535 12.375 6.35066 12.3873 6.27941 12.4133C5.87441 12.5613 5.44847 12.6562 5.00004 12.6562C4.5516 12.6562 4.12567 12.5613 3.72035 12.4133C3.6491 12.3873 3.57473 12.375 3.50004 12.375C1.56067 12.375 -0.010262 14.1497 5.04836e-05 16.3343C0.00442547 17.2575 0.679111 18 1.50005 18H8.50003C9.32096 18 9.99565 17.2575 10 16.3343C10.0103 14.1497 8.4394 12.375 6.50003 12.375ZM5.00004 11.25C6.65691 11.25 8.00003 9.73898 8.00003 7.875C8.00003 6.01102 6.65691 4.5 5.00004 4.5C3.34317 4.5 2.00005 6.01102 2.00005 7.875C2.00005 9.73898 3.34317 11.25 5.00004 11.25ZM18.5 0H6.50003C5.67285 0 5.00004 0.782227 5.00004 1.7434V3.375C5.73191 3.375 6.40941 3.61336 7.00003 4.00078V2.25H18V12.375H16V10.125H12V12.375H9.61753C10.2144 12.9618 10.6525 13.7366 10.8578 14.625H18.5C19.3272 14.625 20 13.8428 20 12.8816V1.7434C20 0.782227 19.3272 0 18.5 0Z" fill="white" />
</svg>